<svg height='300px' width='300px'  fill="#000000" xmlns="http://www.w3.org/2000/svg" xmlns:xlink="http://www.w3.org/1999/xlink" version="1.1" viewBox="0 0 60 60" x="0px" y="0px"><defs><path id="a" d="M5,2h-4h-4.37114e-08c-0.552285,-2.41411e-08 -1,-0.447715 -1,-1c2.41411e-08,-0.552285 0.447715,-1 1,-1h4h-4.37114e-08c0.552285,-2.41411e-08 1,0.447715 1,1c2.41411e-08,0.552285 -0.447715,1 -1,1Z"></path><path id="b" d="M9,2h-8h-4.37114e-08c-0.552285,-2.41411e-08 -1,-0.447715 -1,-1c2.41411e-08,-0.552285 0.447715,-1 1,-1h8h-4.37114e-08c0.552285,-2.41411e-08 1,0.447715 1,1c2.41411e-08,0.552285 -0.447715,1 -1,1Z"></path><path id="d" d="M1,16h-4.37114e-08c-0.552285,-2.41411e-08 -1,-0.447715 -1,-1c0,0 0,-3.55271e-15 0,-3.55271e-15v-14l1.06581e-14,1.50996e-07c-8.33927e-08,-0.552285 0.447715,-1 1,-1c0.552285,-8.33927e-08 1,0.447715 1,1c0,0 0,0 0,0v14h-3.55271e-15c0,0.552285 -0.447715,1 -1,1Z"></path><path id="c" d="M1,14h-4.37114e-08c-0.552285,-2.41411e-08 -1,-0.447715 -1,-1c0,0 0,0 0,0v-12l1.06581e-14,1.50996e-07c-8.33927e-08,-0.552285 0.447715,-1 1,-1c0.552285,-8.33927e-08 1,0.447715 1,1c0,0 0,7.10543e-15 0,7.10543e-15v12h-3.55271e-15c0,0.552285 -0.447715,1 -1,1Z"></path><path id="f" d="M11,2h-10l-4.37114e-08,-1.77636e-15c-0.552285,-2.41411e-08 -1,-0.447715 -1,-1c2.41411e-08,-0.552285 0.447715,-1 1,-1h10l-4.37114e-08,1.77636e-15c0.552285,-2.41411e-08 1,0.447715 1,1c2.41411e-08,0.552285 -0.447715,1 -1,1Z"></path><path id="e" d="M5,2h-4l-4.37114e-08,-8.88178e-16c-0.552285,-2.41411e-08 -1,-0.447715 -1,-1c2.41411e-08,-0.552285 0.447715,-1 1,-1h4l4.56956e-08,1.77636e-15c0.552285,4.16963e-08 1,0.447715 1,1c-4.16963e-08,0.552285 -0.447715,1 -1,1Z"></path></defs><g fill="#000000"><path d="M39,60h-38h-4.37114e-08c-0.552285,-2.41411e-08 -1,-0.447715 -1,-1c0,0 0,0 0,0v-39l2.27374e-13,3.01992e-06c-1.66785e-06,-11.0457 8.9543,-20 20,-20c11.0457,-1.66785e-06 20,8.9543 20,20c0,0 0,2.13163e-14 0,2.13163e-14v39l3.38176e-08,0.000260034c0,0.552141 -0.447599,0.99974 -0.99974,0.99974c-0.000173356,0 -0.000346712,-4.50901e-08 -0.000520068,-1.3527e-07Zm-37,-2h36v-38v0c0,-9.94113 -8.05887,-18 -18,-18c-9.94113,3.55271e-15 -18,8.05887 -18,18Z" transform="translate(10, -1.66785e-06)"></path><path d="M27,54h-26h-4.37114e-08c-0.552285,-2.41411e-08 -1,-0.447715 -1,-1c0,0 0,0 0,0v-39l1.59872e-13,2.11394e-06c-1.1675e-06,-7.73199 6.26801,-14 14,-14c7.73199,-1.1675e-06 14,6.26801 14,14c0,0 0,1.42109e-14 0,1.42109e-14v39v0c0,0.552285 -0.447715,1 -1,1Zm-25,-2h24v-38v0c0,-6.62742 -5.37258,-12 -12,-12c-6.62742,1.77636e-15 -12,5.37258 -12,12Z" transform="translate(16, 6)"></path><path d="M11.0001,26h-8h-4.37114e-08c-0.552285,-2.41411e-08 -1,-0.447715 -1,-1c0,0 0,0 0,0v-3l-7.61951e-08,-7.60778e-11c-1.10411,-0.0011025 -1.9989,-0.895888 -2,-2v-2l-4.35475e-08,4.40992e-05c0.00107814,-1.10411 0.895843,-1.99892 1.99996,-2.00004v-2l-7.61951e-08,-7.60778e-11c-1.10411,-0.0011025 -1.9989,-0.895888 -2,-2v-2l-4.35475e-08,4.40992e-05c0.00107814,-1.10411 0.895843,-1.99892 1.99996,-2.00004v-2l-7.61951e-08,-7.60778e-11c-1.10411,-0.0011025 -1.9989,-0.895888 -2,-2v-2l-4.35475e-08,4.40992e-05c0.00107814,-1.10411 0.895843,-1.99892 1.99996,-2.00004h1.00013h-4.37114e-08c0.552285,-2.41411e-08 1,0.447715 1,1c2.41411e-08,0.552285 -0.447715,1 -1,1h-1v2h1h-4.37114e-08c0.552285,-2.41411e-08 1,0.447715 1,1v4v0c0,0.552285 -0.447715,1 -1,1h-1v2h1h-4.37114e-08c0.552285,-2.41411e-08 1,0.447715 1,1v4v0c0,0.552285 -0.447715,1 -1,1h-1v2h1h-4.37114e-08c0.552285,-2.41411e-08 1,0.447715 1,1v3h7h-4.37114e-08c0.552285,-2.41411e-08 1,0.447715 1,1c2.41411e-08,0.552285 -0.447715,1 -1,1Z" transform="translate(-8.82422e-05, 34)"></path><use transform="translate(2, 34)" xlink:href="#b"></use><use transform="translate(2, 38)" xlink:href="#a"></use><path d="M3.00009,26h-4.37114e-08c-0.552285,-2.41411e-08 -1,-0.447715 -1,-1c0,0 0,0 0,0v-3l-7.61951e-08,-7.60778e-11c-1.10411,-0.0011025 -1.9989,-0.895888 -2,-2v-2l-4.35475e-08,4.40992e-05c0.00107814,-1.10411 0.895843,-1.99892 1.99996,-2.00004v-2l-7.61951e-08,-7.60814e-11c-1.10411,-0.0011025 -1.9989,-0.895888 -2,-2v-2l-4.35475e-08,4.40992e-05c0.00107814,-1.10411 0.895843,-1.99892 1.99996,-2.00004v-2l-7.61951e-08,-7.60849e-11c-1.10411,-0.0011025 -1.9989,-0.895888 -2,-2v-2l-4.35475e-08,4.40992e-05c0.00107814,-1.10411 0.895843,-1.99892 1.99996,-2.00004h1.00013l-4.37114e-08,3.55271e-15c0.552285,-2.41411e-08 1,0.447715 1,1c2.41411e-08,0.552285 -0.447715,1 -1,1h-1v2h1l-4.37114e-08,3.55271e-15c0.552285,-2.41411e-08 1,0.447715 1,1v4v0c0,0.552285 -0.447715,1 -1,1h-1v2h1h-4.37114e-08c0.552285,-2.41411e-08 1,0.447715 1,1v4v0c0,0.552285 -0.447715,1 -1,1h-1v2h1h-4.37114e-08c0.552285,-2.41411e-08 1,0.447715 1,1v4l3.55271e-15,8.66153e-08c0,0.552285 -0.447715,1 -1,1c-2.73448e-08,0 -5.92705e-08,0 -8.66153e-08,-7.10543e-15Z" transform="translate(-8.82422e-05, 10)"></path><use transform="translate(2, 10)" xlink:href="#f"></use><path d="M5,2h-4l-4.37114e-08,-1.77636e-15c-0.552285,-2.41411e-08 -1,-0.447715 -1,-1c2.41411e-08,-0.552285 0.447715,-1 1,-1h4l3.33511e-08,1.77636e-15c0.552285,4.16963e-08 1,0.447715 1,1c-4.16963e-08,0.552285 -0.447715,1 -1,1Z" transform="translate(2, 14)"></path><use transform="translate(2, 6)" xlink:href="#e"></use><use transform="translate(2, 18)" xlink:href="#b"></use><use transform="translate(2, 22)" xlink:href="#a"></use><use transform="translate(2, 26)" xlink:href="#b"></use><use transform="translate(2, 30)" xlink:href="#a"></use><path d="M3,10l-4.37114e-08,-3.55271e-15c-0.552285,-2.41411e-08 -1,-0.447715 -1,-1c0,0 0,0 0,0v-3l-7.61951e-08,-7.60831e-11c-1.10411,-0.0011025 -1.9989,-0.895888 -2,-2v-2l-4.35475e-08,4.40992e-05c0.00107814,-1.10411 0.895843,-1.99892 1.99996,-2.00004h19l-4.37114e-08,1.77636e-15c0.552285,-2.41411e-08 1,0.447715 1,1c2.41411e-08,0.552285 -0.447715,1 -1,1h-19v2h1l-4.37114e-08,8.88178e-16c0.552285,-2.41411e-08 1,0.447715 1,1v4l8.88178e-16,4.37114e-08c0,0.552285 -0.447715,1 -1,1c-1.35461e-08,0 -3.01653e-08,0 -4.37114e-08,-1.77636e-15Z" transform="translate(-4.36236e-08, 2)"></path><use transform="translate(2, 42)" xlink:href="#b"></use><use transform="translate(2, 50)" xlink:href="#b"></use><use transform="translate(2, 54)" xlink:href="#a"></use><use transform="translate(2, 46)" xlink:href="#a"></use><path d="M9,26h-8h-4.37114e-08c-0.552285,-2.41411e-08 -1,-0.447715 -1,-1c2.41411e-08,-0.552285 0.447715,-1 1,-1h7v-3l-3.38176e-08,-0.000259883c-8.3371e-08,-0.552141 0.447599,-0.99974 0.99974,-0.99974c0.000173356,-2.61764e-11 0.000346712,4.50378e-08 0.000520068,1.35192e-07h1v-2h-1.00026l-3.04806e-08,7.92966e-12c-0.552141,0.000143596 -0.999856,-0.447339 -1,-0.99948c-4.50848e-08,-0.000173356 -4.50795e-08,-0.000346712 1.58735e-11,-0.000520068v-4l-3.38176e-08,-0.000259883c-8.3371e-08,-0.552141 0.447599,-0.99974 0.99974,-0.99974c0.000173356,-2.61764e-11 0.000346712,4.50378e-08 0.000520068,1.35192e-07h1v-2h-1.00026l-3.04806e-08,7.92966e-12c-0.552141,0.000143596 -0.999856,-0.447339 -1,-0.99948c-4.50848e-08,-0.000173356 -4.50795e-08,-0.000346712 1.58735e-11,-0.000520068v-4l-3.38176e-08,-0.000259883c-8.3371e-08,-0.552141 0.447599,-0.99974 0.99974,-0.99974c0.000173356,-2.61764e-11 0.000346712,4.50378e-08 0.000520068,1.35192e-07h1v-2h-1.00026h-4.37114e-08c-0.552285,-2.41411e-08 -1,-0.447715 -1,-1c2.41411e-08,-0.552285 0.447715,-1 1,-1h1l3.34583e-08,3.82414e-11c1.10405,0.00126199 1.99874,0.895954 2,2v2l-4.77334e-09,4.17221e-06c-0.00126427,1.10405 -0.895958,1.99874 -2,2v2l3.34583e-08,3.82414e-11c1.10405,0.00126199 1.99874,0.895954 2,2v2l-4.77334e-09,4.17221e-06c-0.00126427,1.10405 -0.895958,1.99874 -2,2v2l3.34583e-08,3.82414e-11c1.10405,0.00126199 1.99874,0.895954 2,2v2l-4.77334e-09,4.17221e-06c-0.00126427,1.10405 -0.895958,1.99874 -2,2v3l3.37869e-08,0.000259916c0,0.552141 -0.447599,0.99974 -0.99974,0.99974c-0.000169159,0 -0.000338318,-4.29333e-08 -0.000507477,-1.288e-07Z" transform="translate(48, 34)"></path><use transform="translate(48, 34)" xlink:href="#b"></use><use transform="translate(52, 38)" xlink:href="#a"></use><path d="M1,26l-3.04806e-08,7.92966e-12c-0.552141,0.000143596 -0.999856,-0.447339 -1,-0.99948c-4.50848e-08,-0.000173356 -4.50795e-08,-0.000346712 1.58735e-11,-0.000520068v-4l-3.38176e-08,-0.000259883c-8.3371e-08,-0.552141 0.447599,-0.99974 0.99974,-0.99974c0.000173356,-2.61764e-11 0.000346712,4.50378e-08 0.000520068,1.35192e-07h1v-2h-1.00026l-3.04806e-08,7.9261e-12c-0.552141,0.000143596 -0.999856,-0.447339 -1,-0.99948c-4.50848e-08,-0.000173356 -4.50795e-08,-0.000346712 1.58735e-11,-0.000520068v-4l-3.38176e-08,-0.000259883c-8.3371e-08,-0.552141 0.447599,-0.99974 0.99974,-0.99974c0.000173356,-2.61764e-11 0.000346712,4.50378e-08 0.000520068,1.35192e-07h1v-2h-1.00026l-3.04806e-08,7.9261e-12c-0.552141,0.000143596 -0.999856,-0.447339 -1,-0.99948c-4.50848e-08,-0.000173356 -4.50795e-08,-0.000346712 1.58735e-11,-0.000520068v-4l-3.38176e-08,-0.000259883c-8.3371e-08,-0.552141 0.447599,-0.99974 0.99974,-0.99974c0.000173356,-2.61764e-11 0.000346712,4.50378e-08 0.000520068,1.35192e-07h1v-2h-1.00026h-4.37114e-08c-0.552285,-2.41411e-08 -1,-0.447715 -1,-1c2.41411e-08,-0.552285 0.447715,-1 1,-1h1l3.34583e-08,3.82485e-11c1.10405,0.00126199 1.99874,0.895954 2,2v2l-4.77334e-09,4.17221e-06c-0.00126427,1.10405 -0.895958,1.99874 -2,2v2l3.34583e-08,3.82414e-11c1.10405,0.00126199 1.99874,0.895954 2,2v2l-4.77334e-09,4.17221e-06c-0.00126427,1.10405 -0.895958,1.99874 -2,2v2l3.34583e-08,3.82414e-11c1.10405,0.00126199 1.99874,0.895954 2,2v2l-4.77334e-09,4.17221e-06c-0.00126427,1.10405 -0.895958,1.99874 -2,2v3l3.37869e-08,0.000259916c0,0.552141 -0.447599,0.99974 -0.99974,0.99974c-0.000169159,0 -0.000338318,-4.29333e-08 -0.000507477,-1.288e-07Z" transform="translate(56, 10)"></path><use transform="translate(46, 10)" xlink:href="#f"></use><path d="M5,2h-4l-4.37114e-08,-1.77636e-15c-0.552285,-2.41411e-08 -1,-0.447715 -1,-1c2.41411e-08,-0.552285 0.447715,-1 1,-1h4l3.3351e-08,1.77636e-15c0.552285,4.16963e-08 1,0.447715 1,1c-4.16963e-08,0.552285 -0.447715,1 -1,1Z" transform="translate(52, 14)"></path><use transform="translate(52, 6)" xlink:href="#e"></use><use transform="translate(48, 18)" xlink:href="#b"></use><use transform="translate(52, 22)" xlink:href="#a"></use><use transform="translate(48, 26)" xlink:href="#b"></use><use transform="translate(52, 30)" xlink:href="#a"></use><path d="M19,10l-3.04806e-08,7.92788e-12c-0.552141,0.000143596 -0.999856,-0.447339 -1,-0.99948c-4.50848e-08,-0.000173356 -4.50795e-08,-0.000346712 1.58735e-11,-0.000520068v-4l-3.38176e-08,-0.000259883c-8.3371e-08,-0.552141 0.447599,-0.99974 0.99974,-0.99974c0.000173356,-2.61764e-11 0.000346712,4.50378e-08 0.000520068,1.35192e-07h1v-2h-19.0003l-4.37114e-08,-8.88178e-16c-0.552285,-2.41411e-08 -1,-0.447715 -1,-1c2.41411e-08,-0.552285 0.447715,-1 1,-1h19l3.34583e-08,3.8245e-11c1.10405,0.00126199 1.99874,0.895954 2,2v2l-4.77334e-09,4.17221e-06c-0.00126427,1.10405 -0.895958,1.99874 -2,2v3l3.38161e-08,0.000260028c0,0.552141 -0.447599,0.99974 -0.99974,0.99974c-0.000171963,0 -0.000343926,-4.43686e-08 -0.00051589,-1.33106e-07Z" transform="translate(38, 2)"></path><use transform="translate(48, 42)" xlink:href="#b"></use><use transform="translate(48, 50)" xlink:href="#b"></use><use transform="translate(52, 54)" xlink:href="#a"></use><use transform="translate(52, 46)" xlink:href="#a"></use><path d="M6.12539,10.0998l-3.51859e-08,3.27205e-11c-0.226914,0.000211009 -0.447084,-0.0771449 -0.624,-0.21924l-5,-4l1.39865e-08,1.1178e-08c-0.431202,-0.344616 -0.501394,-0.973541 -0.156778,-1.40474c0.0462831,-0.0579118 0.0988657,-0.110494 0.156778,-0.156778l5,-4l-4.88652e-08,3.92185e-08c0.397538,-0.319058 0.971626,-0.287255 1.33149,0.0737599l1.70706,1.707h3.58594h-4.37114e-08c0.552285,-2.41411e-08 1,0.447715 1,1v4v0c0,0.552285 -0.447715,1 -1,1h-3.58594l-1.707,1.707l1.15898e-08,-1.16222e-08c-0.18744,0.187965 -0.442099,0.293421 -0.70755,0.293Zm-3.39893,-5l3.3252,2.66016l1.36722,-1.36716l-5.93246e-08,5.93361e-08c0.187501,-0.187537 0.441808,-0.292929 0.707,-0.293h3v-2h-3l-2.56982e-08,-6.87095e-12c-0.265192,-7.09203e-05 -0.519499,-0.105463 -0.707,-0.293l-1.36719,-1.36719Z" transform="translate(30.8741, 17.9002)"></path><path d="M6.12539,10.0998l-3.51859e-08,3.27205e-11c-0.226914,0.000211009 -0.447084,-0.0771449 -0.624,-0.21924l-5,-4l1.39865e-08,1.1178e-08c-0.431202,-0.344616 -0.501394,-0.973541 -0.156778,-1.40474c0.0462831,-0.0579118 0.0988657,-0.110494 0.156778,-0.156778l5,-4l-4.88652e-08,3.92185e-08c0.397538,-0.319058 0.971626,-0.287255 1.33149,0.0737599l1.70706,1.707h3.58594h-4.37114e-08c0.552285,-2.41411e-08 1,0.447715 1,1v4v0c0,0.552285 -0.447715,1 -1,1h-3.58594l-1.707,1.707l1.15898e-08,-1.16222e-08c-0.18744,0.187965 -0.442099,0.293421 -0.70755,0.293Zm-3.39893,-5l3.3252,2.66016l1.36722,-1.36716l-5.93246e-08,5.93362e-08c0.187501,-0.187537 0.441808,-0.292929 0.707,-0.293h3v-2h-3l-2.56982e-08,-6.87805e-12c-0.265192,-7.09203e-05 -0.519499,-0.105463 -0.707,-0.293l-1.36719,-1.36719Z" transform="translate(30.8741, 45.9002)"></path><path d="M3.5,7h-1.5299e-07c-1.933,-8.4494e-08 -3.5,-1.567 -3.5,-3.5c8.4494e-08,-1.933 1.567,-3.5 3.5,-3.5c1.933,8.4494e-08 3.5,1.567 3.5,3.5l6.78578e-08,-5.63565e-05c-0.00231078,1.93203 -1.56792,3.49768 -3.49994,3.50006Zm0,-5h-6.55671e-08c-0.828427,3.62117e-08 -1.5,0.671573 -1.5,1.5c3.62117e-08,0.828427 0.671573,1.5 1.5,1.5c0.828427,-3.62117e-08 1.5,-0.671573 1.5,-1.5l-3.98021e-10,-3.64586e-07c-0.000904093,-0.828052 -0.671948,-1.4991 -1.5,-1.5Z" transform="translate(20, 33)"></path><use transform="translate(21, 15)" xlink:href="#d"></use><use transform="translate(21, 42)" xlink:href="#c"></use><use transform="translate(25, 15)" xlink:href="#d"></use><use transform="translate(25, 42)" xlink:href="#c"></use></g></svg>