<svg height='300px' width='300px'  fill="#000000" xmlns="http://www.w3.org/2000/svg" viewBox="0 0 48 48" x="0px" y="0px"><title>Halloween vol.1</title><g data-name="Layer 19"><path d="M46.68408,33.05859a.99952.99952,0,0,0-.81494-.64453L34.58545,31.02148a9.10724,9.10724,0,0,0-.64392-4.4049c-.00781-.02674-.02124-.04987-.03119-.07587a11.78462,11.78462,0,0,0-1.881-3.07587c-2.35108-2.82129-1.88672-8.31347-1.5293-10.78027a3.2306,3.2306,0,0,1,.585.99023A3.204,3.204,0,0,0,32.89258,15.668a3.37009,3.37009,0,0,0,1.63428.19433,5.00147,5.00147,0,0,0,1.35351,2.86133,5.49593,5.49593,0,0,0,3.623,1.50293,1.00026,1.00026,0,0,0,.978-1.165c-.08838-.52832-2.27832-12.94824-11.95069-15.36621a7.39738,7.39738,0,0,0-6.26611,1.126c-6.23486,4.335-7.84424,17.32617-8.00684,18.793a34.46144,34.46144,0,0,1-1.34277,6.917L1.90039,32.34375a.99912.99912,0,0,0-.56445,1.67285c.33594.35547,8.38965,8.7002,22.75927,8.7002,14.38086,0,22.07129-8.28516,22.39161-8.63867A.99957.99957,0,0,0,46.68408,33.05859Zm-18.209-2.7835a22.50813,22.50813,0,0,0,3.99634-1.67218,6.28572,6.28572,0,0,1,.035,2.75067,7.32243,7.32243,0,0,1-4.03137,1.85907ZM23.40625,6.46387a5.40856,5.40856,0,0,1,4.63916-.8291c6.57031,1.64257,9.25342,9.06933,10.11865,12.27636a2.835,2.835,0,0,1-.85644-.58886,3.60067,3.60067,0,0,1-.85352-2.71973.99981.99981,0,0,0-1.44287-.92285,2.01559,2.01559,0,0,1-1.37744.12988c-.10645-.042-.43164-.17187-.67139-.82422-1.09326-2.97558-4.40429-3.7041-4.54443-3.7334a.99991.99991,0,0,0-.416,1.95606,4.77285,4.77285,0,0,1,.67383.22265c-.34765,1.875-1.47412,9.36524,1.81738,13.31543a10.28067,10.28067,0,0,1,1.2948,1.94959,19.37087,19.37087,0,0,1-3.502,1.52655,2.32415,2.32415,0,0,0-2.13269-1.4068H21.12158a2.31716,2.31716,0,0,0-2.0813,1.31311,7.99087,7.99087,0,0,1-3.23571-1.15125c.15606-.90722.30767-1.94549.44055-3.14233C16.79932,18.84668,18.93115,9.5752,23.40625,6.46387ZM26.4751,29.13672v5.38769a.32227.32227,0,0,1-.32178.32129H21.12158a.32186.32186,0,0,1-.32129-.32129V29.13672a.32186.32186,0,0,1,.32129-.32129h5.03174A.32227.32227,0,0,1,26.4751,29.13672ZM14.80194,31.19415c.15357-.4541.36542-1.163.59387-2.15838a9.52745,9.52745,0,0,0,3.40448,1.06878v3.37439A7.86322,7.86322,0,0,1,14.80194,31.19415Zm9.29327,9.52265A31.89227,31.89227,0,0,1,4.30176,33.97559l8.97455-1.47718A9.46759,9.46759,0,0,0,19.03125,35.516a2.31815,2.31815,0,0,0,2.09033,1.32971h5.03174a2.31678,2.31678,0,0,0,2.19513-1.59881,9.169,9.169,0,0,0,5.39764-2.31452l9.71875,1.19947A30.62343,30.62343,0,0,1,24.09521,40.7168Z"></path><path d="M25.34033,29.12793H21.93506a.99974.99974,0,0,0-1,1V33.5332a.99973.99973,0,0,0,1,1h3.40527a.99973.99973,0,0,0,1-1V30.12793A.99974.99974,0,0,0,25.34033,29.12793Zm-1,3.40527H22.93506V31.12793h1.40527Z"></path></g></svg>