<svg height='300px' width='300px'  fill="#000000" xmlns="http://www.w3.org/2000/svg" xmlns:xlink="http://www.w3.org/1999/xlink" xml:space="preserve" version="1.1" style="shape-rendering:geometricPrecision;text-rendering:geometricPrecision;image-rendering:optimizeQuality;" viewBox="0 0 587 342" x="0px" y="0px" fill-rule="evenodd" clip-rule="evenodd"><defs><style type="text/css">
   
    .fil0 {fill:#000000;fill-rule:nonzero}
   
  </style></defs><g><path class="fil0" d="M294 0c52,0 94,42 94,95 0,52 -42,94 -94,94 -53,0 -95,-42 -95,-94 0,-53 42,-95 95,-95zm0 20c-42,0 -75,33 -75,75 0,41 33,74 75,74 41,0 74,-33 74,-74 0,-42 -33,-75 -74,-75z"></path><path class="fil0" d="M172 334c0,5 -5,9 -11,8 -5,0 -9,-5 -8,-11 8,-71 68,-126 141,-126 72,0 133,55 141,126 0,6 -4,11 -9,11 -6,1 -11,-3 -11,-8 -7,-62 -59,-109 -121,-109 -62,0 -115,47 -122,109z"></path><path class="fil0" d="M479 81c41,0 74,33 74,73 0,41 -33,74 -74,74 -40,0 -73,-33 -73,-74 0,-40 33,-73 73,-73zm0 20c-29,0 -53,24 -53,53 0,30 24,54 53,54 30,0 54,-24 54,-54 0,-29 -24,-53 -54,-53z"></path><path class="fil0" d="M439 268c-5,3 -11,1 -14,-4 -2,-5 0,-11 5,-14 15,-7 32,-12 49,-12 54,0 100,40 108,93 1,5 -3,11 -8,11 -6,1 -11,-3 -12,-8 -6,-44 -44,-76 -88,-76 -14,0 -28,4 -40,10z"></path><path class="fil0" d="M108 81c40,0 73,33 73,73 0,41 -33,74 -73,74 -41,0 -74,-33 -74,-74 0,-40 33,-73 74,-73zm0 20c-30,0 -54,24 -54,53 0,30 24,54 54,54 29,0 53,-24 53,-54 0,-29 -24,-53 -53,-53z"></path><path class="fil0" d="M20 334c-1,5 -6,9 -11,8 -6,0 -10,-6 -9,-11 8,-53 54,-93 108,-93 17,0 34,5 50,12 4,3 6,9 4,14 -3,5 -9,7 -14,4 -12,-6 -26,-10 -40,-10 -44,0 -82,32 -88,76z"></path></g></svg>