<svg height='300px' width='300px'  fill="#000000" xmlns="http://www.w3.org/2000/svg" xmlns:xlink="http://www.w3.org/1999/xlink" viewBox="0 0 60 60" version="1.1" x="0px" y="0px"><title>9 -Castle- (medieval, antique, old)</title><desc>Created with Sketch.</desc><g stroke="none" stroke-width="1" fill="none" fill-rule="evenodd"><g transform="translate(-1080.000000, -351.000000)"><g transform="translate(1081.000000, 352.000000)"><polygon stroke="#000000" stroke-width="2" stroke-linecap="round" stroke-linejoin="round" points="3 58 55 58 55 39 3 39"></polygon><polygon stroke="#000000" stroke-width="2" stroke-linecap="round" stroke-linejoin="round" points="55 39.0005 3 39.0005 0 31.0005 58 31.0005"></polygon><polygon stroke="#000000" stroke-width="2" stroke-linecap="round" stroke-linejoin="round" points="36 31 40 31 40 26 36 26"></polygon><polygon stroke="#000000" stroke-width="2" stroke-linecap="round" stroke-linejoin="round" points="45 31 49 31 49 26 45 26"></polygon><polygon stroke="#000000" stroke-width="2" stroke-linecap="round" stroke-linejoin="round" points="54 31 58 31 58 26 54 26"></polygon><polygon stroke="#000000" stroke-width="2" stroke-linecap="round" stroke-linejoin="round" points="0 31 4 31 4 26 0 26"></polygon><polygon stroke="#000000" stroke-width="2" stroke-linecap="round" stroke-linejoin="round" points="9 31 13 31 13 26 9 26"></polygon><polygon stroke="#000000" stroke-width="2" stroke-linecap="round" stroke-linejoin="round" points="18 31 22 31 22 26 18 26"></polygon><polygon stroke="#000000" stroke-width="2" stroke-linecap="round" stroke-linejoin="round" points="27 31 31 31 31 26 27 26"></polygon><polygon stroke="#000000" stroke-width="2" stroke-linecap="round" stroke-linejoin="round" points="0 5 4 5 4 -1.13686838e-13 0 -1.13686838e-13"></polygon><polygon stroke="#000000" stroke-width="2" stroke-linecap="round" stroke-linejoin="round" points="9 5 13 5 13 -1.13686838e-13 9 -1.13686838e-13"></polygon><polygon stroke="#000000" stroke-width="2" stroke-linecap="round" stroke-linejoin="round" points="18 5 22 5 22 -1.13686838e-13 18 -1.13686838e-13"></polygon><path d="M17,35.0005 L25,35.0005" stroke="#000000" stroke-width="2" stroke-linecap="round" stroke-linejoin="round"></path><path d="M33,35.0005 L41,35.0005" stroke="#000000" stroke-width="2" stroke-linecap="round" stroke-linejoin="round"></path><path d="M30,35.0005 C30,35.5525 29.552,36.0005 29,36.0005 C28.448,36.0005 28,35.5525 28,35.0005 C28,34.4485 28.448,34.0005 29,34.0005 C29.552,34.0005 30,34.4485 30,35.0005" fill="#000000"></path><path d="M49,35.0005 L51,35.0005" stroke="#000000" stroke-width="2" stroke-linecap="round" stroke-linejoin="round"></path><path d="M46,35.0005 C46,35.5525 45.552,36.0005 45,36.0005 C44.448,36.0005 44,35.5525 44,35.0005 C44,34.4485 44.448,34.0005 45,34.0005 C45.552,34.0005 46,34.4485 46,35.0005" fill="#000000"></path><path d="M7,44.0005 L9,44.0005" stroke="#000000" stroke-width="2" stroke-linecap="round" stroke-linejoin="round"></path><path d="M17,44.0005 L18,44.0005" stroke="#000000" stroke-width="2" stroke-linecap="round" stroke-linejoin="round"></path><path d="M14,44.0005 C14,44.5525 13.552,45.0005 13,45.0005 C12.448,45.0005 12,44.5525 12,44.0005 C12,43.4485 12.448,43.0005 13,43.0005 C13.552,43.0005 14,43.4485 14,44.0005" fill="#000000"></path><path d="M7,53.0005 L13,53.0005" stroke="#000000" stroke-width="2" stroke-linecap="round" stroke-linejoin="round"></path><path d="M17,53.0005 L18,53.0005" stroke="#000000" stroke-width="2" stroke-linecap="round" stroke-linejoin="round"></path><path d="M51,44.0005 L45,44.0005" stroke="#000000" stroke-width="2" stroke-linecap="round" stroke-linejoin="round"></path><path d="M41,44.0005 L40,44.0005" stroke="#000000" stroke-width="2" stroke-linecap="round" stroke-linejoin="round"></path><path d="M40,53.0005 L41,53.0005" stroke="#000000" stroke-width="2" stroke-linecap="round" stroke-linejoin="round"></path><path d="M49,53.0005 L51,53.0005" stroke="#000000" stroke-width="2" stroke-linecap="round" stroke-linejoin="round"></path><path d="M46,53.0005 C46,53.5525 45.552,54.0005 45,54.0005 C44.448,54.0005 44,53.5525 44,53.0005 C44,52.4485 44.448,52.0005 45,52.0005 C45.552,52.0005 46,52.4485 46,53.0005" fill="#000000"></path><path d="M9,35.0005 L7,35.0005" stroke="#000000" stroke-width="2" stroke-linecap="round" stroke-linejoin="round"></path><path d="M12,35.0005 C12,34.4485 12.448,34.0005 13,34.0005 C13.552,34.0005 14,34.4485 14,35.0005 C14,35.5525 13.552,36.0005 13,36.0005 C12.448,36.0005 12,35.5525 12,35.0005" fill="#000000"></path><polygon stroke="#000000" stroke-width="2" stroke-linecap="round" stroke-linejoin="round" points="20 11.0005 2 11.0005 0 5.0005 22 5.0005"></polygon><polygon stroke="#000000" stroke-width="2" stroke-linecap="round" stroke-linejoin="round" points="2 11.0005 2 26.0005 4 26.0005 4 31.0005 18 31.0005 18 26.0005 20 26.0005 20 11.0005"></polygon><polygon stroke="#000000" stroke-width="2" stroke-linecap="round" stroke-linejoin="round" points="36 5 40 5 40 -1.13686838e-13 36 -1.13686838e-13"></polygon><polygon stroke="#000000" stroke-width="2" stroke-linecap="round" stroke-linejoin="round" points="45 5 49 5 49 -1.13686838e-13 45 -1.13686838e-13"></polygon><polygon stroke="#000000" stroke-width="2" stroke-linecap="round" stroke-linejoin="round" points="54 5 58 5 58 -1.13686838e-13 54 -1.13686838e-13"></polygon><polygon stroke="#000000" stroke-width="2" stroke-linecap="round" stroke-linejoin="round" points="56 11.0005 38 11.0005 36 5.0005 58 5.0005"></polygon><polygon stroke="#000000" stroke-width="2" stroke-linecap="round" stroke-linejoin="round" points="38 11.0005 38 26.0005 40 26.0005 40 31.0005 54 31.0005 54 26.0005 56 26.0005 56 11.0005"></polygon><path d="M35,58.0005 L23,58.0005 L23,50.0005 C23,46.6865 25.686,44.0005 29,44.0005 C32.314,44.0005 35,46.6865 35,50.0005 L35,58.0005 L35,58.0005 Z" stroke="#000000" stroke-width="2" stroke-linecap="round" stroke-linejoin="round"></path><path d="M31,58.0005 L27,58.0005 L27,50.0005 C27,48.8955 27.895,48.0005 29,48.0005 C30.105,48.0005 31,48.8955 31,50.0005 L31,58.0005 L31,58.0005 Z" stroke="#000000" stroke-width="2" stroke-linecap="round" stroke-linejoin="round"></path><path d="M13,22.0005 L9,22.0005 L9,17.0005 C9,15.8955 9.895,15.0005 11,15.0005 C12.105,15.0005 13,15.8955 13,17.0005 L13,22.0005 L13,22.0005 Z" stroke="#000000" stroke-width="2" stroke-linecap="round" stroke-linejoin="round"></path><path d="M49,22.0005 L45,22.0005 L45,17.0005 C45,15.8955 45.895,15.0005 47,15.0005 C48.105,15.0005 49,15.8955 49,17.0005 L49,22.0005 L49,22.0005 Z" stroke="#000000" stroke-width="2" stroke-linecap="round" stroke-linejoin="round"></path></g></g></g></svg>