<svg height='300px' width='300px'  fill="#000000" xmlns="http://www.w3.org/2000/svg" xmlns:xlink="http://www.w3.org/1999/xlink" version="1.1" x="0px" y="0px" viewBox="0 0 100 100" enable-background="new 0 0 100 100" xml:space="preserve"><g><path d="M51.41,71.761c0,0.471,0.186,0.922,0.521,1.255l4.568,4.57c0.347,0.347,0.802,0.521,1.256,0.521   c0.455,0,0.909-0.174,1.257-0.521l4.84-4.84l3.88,3.883h0.002v0.002l6.132,6.13c0.369,1.635,1.183,3.116,2.379,4.313   c1.679,1.68,3.91,2.603,6.283,2.603s4.604-0.923,6.283-2.603c3.464-3.464,3.464-9.101,0-12.564   c-1.198-1.198-2.68-2.012-4.315-2.381l-6.129-6.13c0,0,0,0,0-0.002c-0.002,0-0.002,0-0.002,0l-3.881-3.882l4.84-4.84   c0.333-0.333,0.519-0.784,0.519-1.254c0-0.473-0.186-0.924-0.521-1.257l-4.568-4.57c-0.694-0.693-1.819-0.693-2.513,0l-4.359,4.359   l-2.787-3.856l20.119-14.539c0.419-0.303,0.685-0.771,0.73-1.284l1.992-22.616c0.048-0.524-0.142-1.041-0.513-1.412   s-0.89-0.561-1.412-0.513l-22.616,1.992c-0.515,0.046-0.983,0.312-1.284,0.73L50.002,29.811L37.893,13.055   c-0.301-0.419-0.77-0.685-1.282-0.73l-22.616-1.992c-0.524-0.046-1.041,0.142-1.412,0.513c-0.373,0.371-0.561,0.888-0.515,1.412   l1.994,22.616c0.044,0.513,0.312,0.981,0.728,1.284l20.122,14.539l-2.787,3.856l-4.361-4.359c-0.692-0.693-1.816-0.693-2.511,0   l-4.57,4.57c-0.333,0.333-0.521,0.784-0.521,1.257c0,0.47,0.188,0.921,0.521,1.254l4.84,4.84L15.507,72.128   c-1.635,0.369-3.116,1.183-4.313,2.381c-1.679,1.677-2.603,3.908-2.603,6.281c0,2.375,0.924,4.606,2.603,6.283   c1.679,1.68,3.908,2.603,6.283,2.603c2.373,0,4.604-0.923,6.281-2.603c1.198-1.196,2.012-2.678,2.381-4.313l10.014-10.015   l4.84,4.84c0.347,0.347,0.802,0.521,1.254,0.521c0.455,0,0.91-0.174,1.257-0.521l4.57-4.57c0.333-0.333,0.521-0.784,0.521-1.255   c0-0.473-0.188-0.923-0.521-1.256l-4.359-4.361l6.287-4.542l6.288,4.542l-4.359,4.361C51.596,70.838,51.41,71.288,51.41,71.761z    M86.298,84.563c-1.007,1.008-2.347,1.562-3.771,1.562s-2.764-0.554-3.771-1.562c-0.806-0.805-1.324-1.824-1.498-2.946   c-0.261-1.68,0.3-3.398,1.496-4.597c1.007-1.007,2.347-1.562,3.771-1.562c0.275,0,0.555,0.022,0.825,0.063c0,0,0,0,0.002,0.002   c1.123,0.174,2.142,0.692,2.945,1.496C88.378,79.1,88.378,82.483,86.298,84.563z M79.632,72.388   c-0.1,0.035-0.199,0.071-0.299,0.111c-0.05,0.018-0.1,0.036-0.147,0.056c-0.12,0.048-0.237,0.1-0.354,0.153   c-0.027,0.013-0.056,0.024-0.083,0.038c-0.146,0.068-0.287,0.14-0.429,0.216c-0.032,0.016-0.063,0.035-0.094,0.054   c-0.108,0.058-0.214,0.119-0.319,0.184c-0.046,0.029-0.094,0.06-0.14,0.087c-0.088,0.059-0.178,0.116-0.264,0.176   c-0.05,0.034-0.098,0.068-0.146,0.102c-0.085,0.063-0.167,0.124-0.249,0.188c-0.048,0.036-0.094,0.072-0.14,0.108   c-0.086,0.069-0.171,0.141-0.255,0.215c-0.038,0.032-0.078,0.065-0.116,0.1c-0.121,0.107-0.239,0.22-0.354,0.335   c-0.124,0.124-0.243,0.251-0.359,0.381c-0.037,0.042-0.071,0.086-0.107,0.13c-0.077,0.09-0.153,0.178-0.228,0.271   c-0.041,0.054-0.081,0.109-0.123,0.165c-0.062,0.084-0.126,0.166-0.186,0.251c-0.042,0.063-0.082,0.126-0.122,0.188   c-0.054,0.082-0.109,0.162-0.159,0.245c-0.042,0.068-0.078,0.136-0.117,0.204c-0.046,0.079-0.096,0.161-0.14,0.245   c-0.038,0.069-0.072,0.142-0.108,0.213c-0.04,0.082-0.083,0.164-0.121,0.248c-0.034,0.073-0.064,0.149-0.098,0.223   c-0.034,0.084-0.072,0.166-0.106,0.249c-0.029,0.078-0.056,0.156-0.083,0.231c-0.028,0.076-0.058,0.149-0.082,0.224L71.5,75.372   l5.609-5.607l2.597,2.597C79.682,72.369,79.658,72.379,79.632,72.388z M74.597,67.253l-5.606,5.609l-2.629-2.627l5.609-5.609   L74.597,67.253z M64.515,15.792l19.697-1.736l-1.736,19.697L63.014,47.816l-4.218-5.834l15.316-15.314   c0.694-0.694,0.694-1.819,0-2.513c-0.693-0.694-1.818-0.694-2.513,0L56.69,39.066l-4.496-6.224L64.515,15.792z M15.792,14.056   l19.697,1.736L48.561,33.88c0,0.002,0,0.002,0.002,0.004l12.612,17.454l0.002,0.002l4.16,5.757l-1.996,1.996L28.402,24.155   c-0.693-0.694-1.816-0.694-2.51,0c-0.694,0.693-0.694,1.818,0,2.513l34.936,34.938l-1.994,1.996L43.502,52.522l-5.071-3.665   c-0.002,0-0.002-0.002-0.004-0.002L17.527,33.753L15.792,14.056z M37.789,52.777l2.808,2.028l0.205,0.147l-4.14,4.14l-1.994-1.996   L37.789,52.777z M22.896,69.765l5.607,5.607L25.9,77.977c-0.024-0.071-0.054-0.142-0.08-0.213c-0.027-0.08-0.056-0.162-0.088-0.242   c-0.031-0.081-0.067-0.161-0.102-0.241c-0.033-0.075-0.065-0.155-0.102-0.23c-0.036-0.082-0.078-0.16-0.117-0.239   c-0.036-0.074-0.072-0.15-0.112-0.224c-0.042-0.08-0.09-0.157-0.134-0.235c-0.041-0.07-0.079-0.142-0.121-0.212   c-0.05-0.079-0.104-0.157-0.153-0.234c-0.044-0.066-0.086-0.134-0.13-0.198c-0.058-0.081-0.117-0.161-0.178-0.241   c-0.044-0.058-0.086-0.119-0.132-0.177c-0.069-0.088-0.144-0.174-0.215-0.26c-0.04-0.046-0.078-0.094-0.12-0.14   c-0.113-0.132-0.232-0.257-0.358-0.381c-0.114-0.115-0.233-0.228-0.354-0.335c-0.039-0.036-0.079-0.067-0.119-0.104   c-0.082-0.072-0.166-0.142-0.249-0.209c-0.048-0.038-0.096-0.076-0.146-0.114c-0.08-0.062-0.16-0.121-0.241-0.182   c-0.053-0.035-0.103-0.071-0.152-0.105c-0.085-0.058-0.171-0.115-0.259-0.169c-0.048-0.032-0.096-0.063-0.146-0.094   c-0.1-0.061-0.203-0.12-0.308-0.178c-0.035-0.021-0.069-0.04-0.104-0.06c-0.142-0.074-0.283-0.146-0.425-0.214   c-0.031-0.016-0.063-0.027-0.096-0.042c-0.113-0.052-0.227-0.102-0.341-0.149c-0.052-0.02-0.102-0.038-0.153-0.058   c-0.098-0.038-0.195-0.074-0.295-0.107c-0.026-0.011-0.05-0.021-0.076-0.028L22.896,69.765z M17.478,86.124   c-1.426,0-2.764-0.554-3.772-1.562c-1.008-1.009-1.562-2.347-1.562-3.772c0-1.424,0.554-2.764,1.562-3.771   c0.805-0.806,1.824-1.322,2.947-1.498c0.272-0.041,0.55-0.063,0.827-0.063c1.424,0,2.762,0.555,3.769,1.562   c0.299,0.299,0.559,0.632,0.775,0.987c0.489,0.802,0.76,1.723,0.782,2.664c0.008,0.313-0.012,0.63-0.06,0.945l0,0   c-0.176,1.122-0.692,2.142-1.498,2.946C20.241,85.57,18.901,86.124,17.478,86.124z M31.015,72.862l-5.608-5.609l2.628-2.627   l5.607,5.609L31.015,72.862z M42.247,73.819l-4.837-4.838c0-0.002,0-0.002,0-0.002l-8.122-8.122c0,0,0,0-0.002-0.002l-4.838-4.835   l2.061-2.061l8.897,8.899c0,0,0,0,0.002,0c0,0.002,0,0.002,0,0.002l8.899,8.899L42.247,73.819z M41.171,63.602l-1.996-1.996   l4.544-4.545l3.251,2.35L41.171,63.602z M64.597,62.859l4.321-4.32c0,0,0.002,0,0.002-0.003l4.576-4.576l2.059,2.061l-4.836,4.833   c0,0.002-0.002,0.004-0.004,0.004l-8.12,8.122c0,0,0,0-0.002,0.002l-4.838,4.838l-2.058-2.059L64.597,62.859z"></path></g></svg>